<svg width="24" height="24" viewBox="0 0 24 24" fill="none" xmlns="http://www.w3.org/2000/svg">
<path d="M11.4587 6.02319H10.2736C7.31075 6.02319 6.12561 7.20833 6.12561 10.1712V13.7266C6.12561 16.6894 7.31075 17.8746 10.2736 17.8746H13.829C16.7919 17.8746 17.977 16.6894 17.977 13.7266V12.5414" stroke="black" stroke-opacity="0.8" stroke-linecap="round" stroke-linejoin="round"/>
<path d="M14.445 6.62756L9.77556 11.297C9.59779 11.4748 9.42002 11.8244 9.38447 12.0792L9.12966 13.8628C9.03485 14.5087 9.49113 14.9591 10.137 14.8702L11.9207 14.6154C12.1695 14.5798 12.5192 14.4021 12.7029 14.2243L17.3723 9.55484C18.1782 8.74895 18.5574 7.81269 17.3723 6.62756C16.1872 5.44242 15.2509 5.82166 14.445 6.62756Z" stroke="black" stroke-opacity="0.8" stroke-miterlimit="10" stroke-linecap="round" stroke-linejoin="round"/>
<path d="M13.7758 7.29712C14.1728 8.71336 15.2809 9.82146 16.703 10.2244" stroke="black" stroke-opacity="0.8" stroke-miterlimit="10" stroke-linecap="round" stroke-linejoin="round"/>
</svg>
