<svg width="10" height="13" viewBox="0 0 10 13" fill="none" xmlns="http://www.w3.org/2000/svg">
<path d="M4.55 0C2.0345 0 0 2.0345 0 4.55C0 7.9625 4.55 13 4.55 13C4.55 13 9.1 7.9625 9.1 4.55C9.1 2.0345 7.0655 0 4.55 0ZM1.3 4.55C1.3 2.756 2.756 1.3 4.55 1.3C6.344 1.3 7.8 2.756 7.8 4.55C7.8 6.422 5.928 9.2235 4.55 10.972C3.198 9.2365 1.3 6.4025 1.3 4.55Z" fill="black"/>
<path d="M4.55005 6.17505C5.44751 6.17505 6.17505 5.44751 6.17505 4.55005C6.17505 3.65259 5.44751 2.92505 4.55005 2.92505C3.65259 2.92505 2.92505 3.65259 2.92505 4.55005C2.92505 5.44751 3.65259 6.17505 4.55005 6.17505Z" fill="black"/>
</svg>
