<svg width="20" height="20" viewBox="0 0 20 20" fill="none" xmlns="http://www.w3.org/2000/svg">
<g clip-path="url(#clip0_330_2537)">
<path d="M15.8333 0H4.16667C1.86583 0 0 1.86583 0 4.16667V15.8333C0 18.1342 1.86583 20 4.16667 20H15.8333C18.135 20 20 18.1342 20 15.8333V4.16667C20 1.86583 18.135 0 15.8333 0ZM15.7175 7.6975C15.8917 11.545 13.0225 15.835 7.9425 15.835C6.3975 15.835 4.96 15.3825 3.74917 14.6058C5.20083 14.7767 6.64917 14.3742 7.79917 13.4733C6.60167 13.4508 5.59167 12.66 5.24417 11.5733C5.67333 11.655 6.095 11.6308 6.47917 11.5267C5.16333 11.2625 4.25583 10.0775 4.285 8.81C4.65333 9.015 5.07583 9.13833 5.52333 9.1525C4.30583 8.33833 3.96083 6.73 4.67667 5.5C6.02583 7.155 8.04167 8.24417 10.315 8.35833C9.91583 6.6475 11.215 5 12.9808 5C13.7667 5 14.4783 5.33167 14.9767 5.86417C15.6 5.74167 16.1858 5.51417 16.715 5.20083C16.51 5.84 16.0767 6.37583 15.5125 6.71417C16.0658 6.6475 16.5933 6.50083 17.0833 6.28333C16.7175 6.83 16.2533 7.31167 15.7175 7.6975Z" fill="white"/>
</g>
<defs>
<clipPath id="clip0_330_2537">
<rect width="20" height="20" fill="white"/>
</clipPath>
</defs>
</svg>
