<svg width="26" height="28" viewBox="0 0 26 28" fill="none" xmlns="http://www.w3.org/2000/svg">
<path d="M23 10V12H24V16C24 16.7956 23.6839 17.5587 23.1213 18.1213C22.5587 18.6839 21.7957 19 21 19C20.2044 19 19.4413 18.6839 18.8787 18.1213C18.3161 17.5587 18 16.7956 18 16V12H19V10H16V16C16.0015 17.1521 16.4002 18.2684 17.1288 19.1608C17.8575 20.0532 18.8715 20.6671 20 20.899V22C20 23.0609 19.5786 24.0783 18.8284 24.8284C18.0783 25.5786 17.0609 26 16 26C14.9391 26 13.9217 25.5786 13.1716 24.8284C12.4214 24.0783 12 23.0609 12 22V19.816C12.6672 19.5801 13.2296 19.1159 13.5876 18.5055C13.9457 17.8951 14.0765 17.1778 13.9568 16.4803C13.8371 15.7828 13.4747 15.15 12.9337 14.6939C12.3926 14.2378 11.7077 13.9876 11 13.9876C10.2923 13.9876 9.60742 14.2378 9.06635 14.6939C8.52528 15.15 8.16288 15.7828 8.04321 16.4803C7.92354 17.1778 8.0543 17.8951 8.41237 18.5055C8.77045 19.1159 9.33279 19.5801 10 19.816V22C10 23.5913 10.6321 25.1174 11.7574 26.2426C12.8826 27.3679 14.4087 28 16 28C17.5913 28 19.1174 27.3679 20.2426 26.2426C21.3679 25.1174 22 23.5913 22 22V20.899C23.1285 20.6671 24.1426 20.0532 24.8712 19.1608C25.5998 18.2684 25.9985 17.1521 26 16V10H23ZM11 16C11.1978 16 11.3911 16.0586 11.5556 16.1685C11.72 16.2784 11.8482 16.4346 11.9239 16.6173C11.9996 16.8 12.0194 17.0011 11.9808 17.1951C11.9422 17.3891 11.847 17.5673 11.7071 17.7071C11.5673 17.847 11.3891 17.9422 11.1951 17.9808C11.0011 18.0194 10.8 17.9996 10.6173 17.9239C10.4346 17.8482 10.2784 17.72 10.1685 17.5556C10.0587 17.3911 10 17.1978 10 17C10 16.7348 10.1054 16.4804 10.2929 16.2929C10.4804 16.1054 10.7348 16 11 16Z" fill="#174A8B"/>
<path d="M22 2H18V0H16V2H8V0H6V2H2C1.46957 2 0.960859 2.21071 0.585786 2.58579C0.210714 2.96086 0 3.46957 0 4V24C0 24.5304 0.210714 25.0391 0.585786 25.4142C0.960859 25.7893 1.46957 26 2 26H6V24H2V4H6V6H8V4H16V6H18V4H22V8H24V4C24 3.46957 23.7893 2.96086 23.4142 2.58579C23.0391 2.21071 22.5304 2 22 2Z" fill="#174A8B"/>
</svg>
