<svg width="22" height="18" viewBox="0 0 22 18" fill="none" xmlns="http://www.w3.org/2000/svg">
<path d="M17.8 7L17.6 5.95C17.45 5.9 17.3127 5.83733 17.188 5.762C17.0627 5.68733 16.95 5.6 16.85 5.5L15.8 5.85L15.1 4.65L15.95 3.9C15.9167 3.81667 15.9 3.75 15.9 3.7V3.3C15.9 3.25 15.9167 3.18333 15.95 3.1L15.1 2.35L15.8 1.15L16.85 1.5C16.95 1.4 17.0627 1.31233 17.188 1.237C17.3127 1.16233 17.45 1.1 17.6 1.05L17.8 0H19.2L19.4 1.05C19.55 1.1 19.6877 1.16233 19.813 1.237C19.9377 1.31233 20.05 1.4 20.15 1.5L21.2 1.15L21.9 2.35L21.05 3.1C21.0833 3.18333 21.1 3.25 21.1 3.3V3.7C21.1 3.75 21.0833 3.81667 21.05 3.9L21.9 4.65L21.2 5.85L20.15 5.5C20.05 5.6 19.9377 5.68733 19.813 5.762C19.6877 5.83733 19.55 5.9 19.4 5.95L19.2 7H17.8ZM18.5 4.75C18.85 4.75 19.146 4.629 19.388 4.387C19.6293 4.14567 19.75 3.85 19.75 3.5C19.75 3.15 19.6293 2.854 19.388 2.612C19.146 2.37067 18.85 2.25 18.5 2.25C18.15 2.25 17.8543 2.37067 17.613 2.612C17.371 2.854 17.25 3.15 17.25 3.5C17.25 3.85 17.371 4.14567 17.613 4.387C17.8543 4.629 18.15 4.75 18.5 4.75ZM15.5 12L15.35 11.25C15.25 11.2167 15.1543 11.179 15.063 11.137C14.971 11.0957 14.8833 11.0333 14.8 10.95L14.1 11.2L13.6 10.3L14.15 9.8V9.2L13.6 8.7L14.1 7.8L14.8 8.05C14.8667 7.98333 14.95 7.925 15.05 7.875C15.15 7.825 15.25 7.78333 15.35 7.75L15.5 7H16.5L16.65 7.75C16.75 7.78333 16.85 7.825 16.95 7.875C17.05 7.925 17.1333 7.98333 17.2 8.05L17.9 7.8L18.4 8.7L17.85 9.2V9.8L18.4 10.3L17.9 11.2L17.2 10.95C17.1167 11.0333 17.0293 11.0957 16.938 11.137C16.846 11.179 16.75 11.2167 16.65 11.25L16.5 12H15.5ZM16 10.25C16.2 10.25 16.375 10.175 16.525 10.025C16.675 9.875 16.75 9.7 16.75 9.5C16.75 9.3 16.675 9.125 16.525 8.975C16.375 8.825 16.2 8.75 16 8.75C15.8 8.75 15.625 8.825 15.475 8.975C15.325 9.125 15.25 9.3 15.25 9.5C15.25 9.7 15.325 9.875 15.475 10.025C15.625 10.175 15.8 10.25 16 10.25ZM8 10C6.9 10 5.95833 9.60833 5.175 8.825C4.39167 8.04167 4 7.1 4 6H3.25V5H4C4 4.25 4.18333 3.575 4.55 2.975C4.91667 2.375 5.4 1.9 6 1.55V2.5C6 2.65 6.046 2.77067 6.138 2.862C6.22933 2.954 6.35 3 6.5 3C6.65 3 6.771 2.954 6.863 2.862C6.95433 2.77067 7 2.65 7 2.5V1.15C7.15 1.1 7.30833 1.06233 7.475 1.037C7.64167 1.01233 7.81667 1 8 1C8.18333 1 8.35833 1.01233 8.525 1.037C8.69167 1.06233 8.85 1.1 9 1.15V2.5C9 2.65 9.046 2.77067 9.138 2.862C9.22933 2.954 9.35 3 9.5 3C9.65 3 9.771 2.954 9.863 2.862C9.95433 2.77067 10 2.65 10 2.5V1.55C10.6 1.9 11.0833 2.375 11.45 2.975C11.8167 3.575 12 4.25 12 5H12.75V6H12C12 7.1 11.6083 8.04167 10.825 8.825C10.0417 9.60833 9.1 10 8 10ZM8 8C8.55 8 9.021 7.804 9.413 7.412C9.80433 7.02067 10 6.55 10 6H6C6 6.55 6.196 7.02067 6.588 7.412C6.97933 7.804 7.45 8 8 8ZM0 18V15.2C0 14.65 0.141667 14.1333 0.425 13.65C0.708333 13.1667 1.1 12.8 1.6 12.55C2.45 12.1167 3.40833 11.75 4.475 11.45C5.54167 11.15 6.71667 11 8 11C9.28333 11 10.4583 11.15 11.525 11.45C12.5917 11.75 13.55 12.1167 14.4 12.55C14.9 12.8 15.2917 13.1667 15.575 13.65C15.8583 14.1333 16 14.65 16 15.2V18H0ZM2 16H14V15.2C14 15.0167 13.9543 14.85 13.863 14.7C13.771 14.55 13.65 14.4333 13.5 14.35C12.9 14.05 12.1293 13.75 11.188 13.45C10.246 13.15 9.18333 13 8 13C6.81667 13 5.75433 13.15 4.813 13.45C3.871 13.75 3.1 14.05 2.5 14.35C2.35 14.4333 2.22933 14.55 2.138 14.7C2.046 14.85 2 15.0167 2 15.2V16Z" fill="#174A8B"/>
</svg>
