<svg width="31" height="32" viewBox="0 0 31 32" fill="none" xmlns="http://www.w3.org/2000/svg">
<path d="M15.5005 6.8473e-05C14.3029 6.8473e-05 13.1844 0.523177 12.231 1.37977C11.2778 2.23658 10.4617 3.42981 9.78141 4.87516C9.63884 5.17795 9.50268 5.49264 9.37251 5.81724C9.02148 5.76379 8.66895 5.71987 8.31533 5.68554C7.90401 5.64622 7.50267 5.62181 7.11273 5.61305C5.9422 5.58639 4.87241 5.70024 3.93478 5.97287C2.68469 6.33645 1.65318 7.00425 1.05437 7.99897C0.455564 8.99391 0.368594 10.1847 0.66536 11.405C0.962269 12.6252 1.63144 13.8998 2.5963 15.1876C2.79875 15.4577 3.01504 15.7287 3.2433 15.9995C3.01998 16.264 2.80452 16.5344 2.59715 16.8105C1.63222 18.0983 0.963053 19.3729 0.666216 20.5932C0.369379 21.8135 0.45642 23.0042 1.05523 23.999C1.65403 24.9939 2.68555 25.6616 3.93563 26.0251C5.18578 26.3887 6.67111 26.47 8.31619 26.3124C8.66107 26.2793 9.01337 26.2351 9.3718 26.181C9.49902 26.4992 9.63561 26.8139 9.78141 27.1248C10.4617 28.5703 11.2777 29.7634 12.231 30.6201C13.1843 31.4768 14.303 32 15.5005 32C16.698 32 17.8166 31.4768 18.7699 30.6201C19.7232 29.7633 20.5393 28.5703 21.2196 27.1248C21.3654 26.814 21.5019 26.4993 21.6292 26.1811C21.9872 26.2351 22.3392 26.2794 22.6838 26.3124C24.3289 26.47 25.8143 26.3887 27.0643 26.0251C28.3146 25.6616 29.3461 24.9938 29.9449 23.999C30.5437 23.004 30.6307 21.8134 30.3339 20.5932C30.037 19.3729 29.3678 18.0984 28.403 16.8105C28.1955 16.5344 27.98 16.264 27.7567 15.9995C27.9804 15.7349 28.1961 15.4641 28.4037 15.1877C29.3686 13.8998 30.0378 12.6253 30.3346 11.4051C30.6314 10.1847 30.5444 8.99397 29.9456 7.99904C29.3468 7.00432 28.3153 6.33652 27.0652 5.97294C26.1276 5.70031 25.0578 5.58645 23.8874 5.61305C23.4972 5.62181 23.0957 5.64622 22.6845 5.68554C22.3395 5.71863 21.9868 5.76301 21.6282 5.81717C21.5012 5.49955 21.3648 5.18543 21.2193 4.87516C20.539 3.42961 19.723 2.23637 18.7696 1.37971C17.8163 0.52304 16.6977 0 15.5002 0L15.5005 6.8473e-05ZM15.5005 1.27789C16.2993 1.27789 17.0825 1.61452 17.8591 2.31248C18.6356 3.0103 19.3773 4.06664 20.0053 5.40101C20.1075 5.61872 20.2046 5.83857 20.2966 6.0604C18.7699 6.38602 17.1529 6.88561 15.5001 7.55314C13.8477 6.88575 12.2309 6.3863 10.7044 6.06067C10.7987 5.83433 10.8955 5.61374 10.9957 5.40094C11.6237 4.0665 12.3654 3.01016 13.142 2.31221C13.9186 1.61439 14.7018 1.27775 15.5007 1.27775L15.5005 1.27789ZM6.69021 6.88896C6.81881 6.88773 6.94948 6.88855 7.08215 6.89142C7.43573 6.89894 7.80335 6.92083 8.18303 6.95727C8.42583 6.98052 8.67398 7.01027 8.92612 7.04535C8.45662 8.47634 8.09919 10.0693 7.87521 11.7759C6.44606 12.8153 5.18642 13.9089 4.1291 15.0146C3.97436 14.8268 3.82398 14.6358 3.67807 14.4417C2.78735 13.2528 2.20458 12.1086 1.9627 11.1144C1.7209 10.1203 1.80873 9.30148 2.20807 8.63792C2.60742 7.97436 3.30303 7.49207 4.32129 7.19592C4.9896 7.00151 5.78979 6.89676 6.69014 6.88889L6.69021 6.88896ZM24.31 6.88896C25.2103 6.89682 26.0105 7.00158 26.6788 7.19599C27.6972 7.49207 28.3926 7.97436 28.792 8.63792C29.1913 9.30148 29.2792 10.1204 29.0374 11.1144C28.7957 12.1085 28.2126 13.2528 27.322 14.4417C27.1761 14.6358 27.0258 14.8269 26.8712 15.0147C25.814 13.9092 24.5547 12.8158 23.126 11.7766C22.9021 10.0697 22.5443 8.47654 22.0748 7.04535C22.3266 7.01027 22.5745 6.98038 22.8171 6.95727C23.183 6.92171 23.5503 6.89972 23.918 6.89135C24.0487 6.88851 24.1793 6.88766 24.31 6.88882V6.88896ZM20.7513 7.27462C21.1056 8.33028 21.399 9.49506 21.6179 10.7415C20.9107 10.2832 20.1867 9.84909 19.4475 9.43988C18.7089 9.03059 17.9554 8.64644 17.1884 8.28815C18.4231 7.84676 19.6212 7.50814 20.7513 7.27476V7.27462ZM10.2496 7.27483C11.3795 7.50828 12.5775 7.8469 13.8118 8.28822C13.0449 8.64651 12.2914 9.03063 11.5527 9.43988C10.8139 9.84892 10.0902 10.2828 9.38321 10.7407C9.60206 9.49465 9.89533 8.33014 10.2496 7.27476V7.27483ZM15.5001 8.94741C16.5841 9.4061 17.6845 9.93919 18.7814 10.5467C19.8787 11.1544 20.9107 11.8021 21.8671 12.4736C21.9951 13.6038 22.0639 14.7847 22.0639 16C22.0639 17.2146 21.9953 18.3951 21.8673 19.5247C20.911 20.1961 19.8792 20.8436 18.7822 21.4513C17.6851 22.0588 16.5844 22.5921 15.5002 23.0508C14.4158 22.5921 13.3151 22.0588 12.218 21.4513C11.1212 20.8438 10.0898 20.1965 9.13385 19.5254C9.00589 18.3956 8.9371 17.2148 8.9371 15.9999C8.9371 14.7845 9.00589 13.6033 9.13399 12.4731C10.0902 11.8018 11.1218 11.1542 12.2188 10.5467C13.3157 9.93926 14.4161 9.4061 15.5001 8.94755V8.94741ZM15.5902 10.87L11.7762 13.1277L15.5902 15.3856L19.4042 13.1277L15.5902 10.8699V10.87ZM7.6945 13.546C7.63456 14.3627 7.60468 15.1811 7.60489 15.9998C7.60489 16.8339 7.63554 17.6527 7.69457 18.4522C6.67874 17.6473 5.7739 16.8213 4.99801 15.9992C5.7739 15.1771 6.67874 14.3509 7.69457 13.546H7.6945ZM23.3066 13.5467C24.3219 14.3515 25.2266 15.1773 26.0022 15.9992C25.2266 16.8212 24.3219 17.647 23.3066 18.4516C23.3665 17.6356 23.3964 16.8179 23.3961 15.9999C23.3961 15.1654 23.3655 14.3464 23.3065 13.5467H23.3066ZM10.917 14.1206V18.5789L14.9226 20.9501V16.4921L10.917 14.1206ZM20.2597 14.123L16.255 16.4937V20.9496L20.2598 18.5789V14.123H20.2597ZM4.12896 16.984C5.18642 18.0897 6.44592 19.1831 7.87493 20.2225C8.09877 21.9289 8.45634 23.5217 8.92569 24.9527C8.67405 24.9875 8.42625 25.0174 8.18388 25.0407C6.66519 25.1861 5.34048 25.0981 4.32215 24.802C3.30375 24.5059 2.60842 24.0235 2.209 23.3599C1.80965 22.6963 1.72176 21.8774 1.96356 20.8834C2.20536 19.8893 2.7882 18.745 3.67893 17.5561C3.82453 17.3622 3.9746 17.1715 4.12903 16.984H4.12896ZM26.8711 16.9842C27.0284 17.1757 27.179 17.3664 27.3211 17.5561C28.2118 18.7449 28.7946 19.8893 29.0364 20.8833C29.2782 21.8773 29.1905 22.6962 28.7912 23.3598C28.3917 24.0234 27.6962 24.5059 26.6778 24.802C25.6596 25.0981 24.3351 25.1861 22.8164 25.0406C22.5687 25.0165 22.3217 24.9872 22.0753 24.9527C22.5448 23.5214 22.9023 21.9283 23.1261 20.2215C24.5547 19.1824 25.814 18.0893 26.8712 16.9841L26.8711 16.9842ZM21.6182 21.2568C21.3993 22.5031 21.1061 23.6679 20.7518 24.7235C19.6216 24.4901 18.4233 24.1513 17.1886 23.7099C17.9557 23.3515 18.7095 22.9672 19.4484 22.5579C20.1874 22.1488 20.9112 21.7148 21.6183 21.2568H21.6182ZM9.38292 21.2575C10.0897 21.7153 10.8131 22.149 11.5517 22.5579C12.2907 22.9672 13.0444 23.3515 13.8115 23.7099C12.5771 24.1512 11.3792 24.4899 10.2491 24.7233C9.89483 23.6679 9.60184 22.5034 9.38299 21.2575H9.38292ZM15.5399 21.3156L15.5884 21.3443L15.6367 21.3156H15.54H15.5399ZM15.5 24.4452C17.1532 25.1125 18.7702 25.6121 20.2972 25.9376C20.205 26.1601 20.1077 26.3805 20.0053 26.5989C19.3773 27.9332 18.6356 28.9894 17.859 29.6874C17.0825 30.3853 16.2993 30.722 15.5005 30.722C14.7017 30.722 13.9185 30.3853 13.1419 29.6874C12.3654 28.9895 11.6237 27.9332 10.9957 26.5988C10.8934 26.3805 10.796 26.16 10.7038 25.9376C12.2305 25.6119 13.8474 25.1125 15.5002 24.4452H15.5Z" fill="#174A8B"/>
</svg>
