<svg width="20" height="20" viewBox="0 0 20 20" fill="none" xmlns="http://www.w3.org/2000/svg">
<path d="M0 5V2.5C0 1.83696 0.263392 1.20107 0.732233 0.732233C1.20107 0.263392 1.83696 0 2.5 0H5M0 15V17.5C0 18.163 0.263392 18.7989 0.732233 19.2678C1.20107 19.7366 1.83696 20 2.5 20H5M15 0H17.5C18.163 0 18.7989 0.263392 19.2678 0.732233C19.7366 1.20107 20 1.83696 20 2.5V5M15 20H17.5C18.163 20 18.7989 19.7366 19.2678 19.2678C19.7366 18.7989 20 18.163 20 17.5V15M5.75375 7.0125C5.99113 6.77061 6.27434 6.57847 6.58684 6.44731C6.89934 6.31614 7.23484 6.24858 7.57375 6.24858C7.91266 6.24858 8.24816 6.31614 8.56066 6.44731C8.87316 6.57847 9.15637 6.77061 9.39375 7.0125L10 7.5L10.625 7.005C10.8622 6.76577 11.1446 6.57604 11.4557 6.44683C11.7669 6.31763 12.1006 6.25151 12.4375 6.25232C12.7744 6.25314 13.1077 6.32086 13.4182 6.45158C13.7287 6.58229 14.0102 6.77338 14.2463 7.01375C14.7294 7.50556 15.0001 8.16743 15.0001 8.85687C15.0001 9.54631 14.7294 10.2082 14.2463 10.7L10 15L5.75375 10.7C5.27021 10.2081 4.99925 9.54599 4.99925 8.85625C4.99925 8.16651 5.27021 7.50437 5.75375 7.0125Z" fill="#174A8B"/>
</svg>
