<svg width="23" height="20" viewBox="0 0 23 20" fill="none" xmlns="http://www.w3.org/2000/svg">
<path d="M12.2475 0.75V2.5H14.2225C14.5735 2.5 14.9165 2.606 15.2065 2.803L16.9035 3.957C16.9445 3.985 16.9935 4 17.0435 4H21.1455C21.3445 4 21.5352 4.07902 21.6759 4.21967C21.8165 4.36032 21.8955 4.55109 21.8955 4.75C21.8955 4.94891 21.8165 5.13968 21.6759 5.28033C21.5352 5.42098 21.3445 5.5 21.1455 5.5H19.5675L22.9335 13.18C23.0011 13.3335 23.0151 13.5053 22.9734 13.6677C22.9317 13.8302 22.8367 13.974 22.7035 14.076C22.6035 14.15 22.5005 14.219 22.3935 14.282C22.1399 14.4334 21.8759 14.5667 21.6035 14.681C20.699 15.0593 19.728 15.2527 18.7475 15.25C17.7675 15.2531 16.7968 15.06 15.8925 14.682C15.62 14.5676 15.356 14.434 15.1025 14.282C14.9964 14.2206 14.8939 14.1531 14.7955 14.08L14.7905 14.076C14.6574 13.974 14.5624 13.8302 14.5207 13.6677C14.479 13.5053 14.493 13.3335 14.5605 13.18L17.9285 5.5H17.0425C16.6915 5.5 16.3485 5.394 16.0585 5.197L14.3615 4.043C14.3203 4.01479 14.2715 3.99979 14.2215 4H12.2475V18.5H16.7345C16.9335 18.5 17.1242 18.579 17.2649 18.7197C17.4055 18.8603 17.4845 19.0511 17.4845 19.25C17.4845 19.4489 17.4055 19.6397 17.2649 19.7803C17.1242 19.921 16.9335 20 16.7345 20H6.26054C6.06163 20 5.87087 19.921 5.73021 19.7803C5.58956 19.6397 5.51054 19.4489 5.51054 19.25C5.51054 19.0511 5.58956 18.8603 5.73021 18.7197C5.87087 18.579 6.06163 18.5 6.26054 18.5H10.7475V4H8.77254C8.72262 3.99997 8.67385 4.01496 8.63254 4.043L6.93654 5.197C6.64654 5.394 6.30354 5.5 5.95254 5.5H5.06654L8.43454 13.18C8.49973 13.3292 8.5146 13.4956 8.47689 13.654C8.43919 13.8124 8.35096 13.9542 8.22554 14.058C8.14554 14.123 8.06554 14.184 7.91554 14.281C7.66264 14.4448 7.39791 14.5895 7.12354 14.714C6.22036 15.1243 5.23956 15.3357 4.24754 15.334C3.2555 15.3361 2.27462 15.1246 1.37154 14.714C1.09718 14.5895 0.832446 14.4448 0.579545 14.281C0.472601 14.213 0.369447 14.1392 0.270545 14.06C0.146123 13.955 0.0586035 13.8129 0.0208125 13.6545C-0.0169785 13.4962 -0.00305424 13.3299 0.0605447 13.18L3.42754 5.5H1.85054C1.65163 5.5 1.46087 5.42098 1.32021 5.28033C1.17956 5.13968 1.10054 4.94891 1.10054 4.75C1.10054 4.55109 1.17956 4.36032 1.32021 4.21967C1.46087 4.07902 1.65163 4 1.85054 4H5.95254C6.00254 4 6.05154 3.985 6.09354 3.957L7.78855 2.803C8.07855 2.605 8.42254 2.5 8.77354 2.5H10.7475V0.75C10.7475 0.551088 10.8266 0.360322 10.9672 0.21967C11.1079 0.0790175 11.2986 0 11.4975 0C11.6965 0 11.8872 0.0790175 12.0279 0.21967C12.1685 0.360322 12.2475 0.551088 12.2475 0.75ZM1.69054 13.198C2.47759 13.617 3.35593 13.8351 4.24754 13.833C5.13916 13.8351 6.0175 13.617 6.80454 13.198L4.24754 7.368L1.69054 13.198ZM16.2005 13.174C16.2825 13.214 16.3745 13.257 16.4755 13.3C17.0055 13.523 17.7805 13.75 18.7475 13.75C19.6291 13.7525 20.4998 13.5556 21.2945 13.174L18.7475 7.367L16.2005 13.174Z" fill="#174A8B"/>
</svg>
