<svg width="37" height="35" viewBox="0 0 37 35" fill="none" xmlns="http://www.w3.org/2000/svg">
<path d="M12.6842 10H24.3158C25.0277 10 25.7104 10.295 26.2138 10.8201C26.7172 11.3452 27 12.0574 27 12.8V21.2C27 21.9426 26.7172 22.6548 26.2138 23.1799C25.7104 23.705 25.0277 24 24.3158 24H12.6842C11.9723 24 11.2896 23.705 10.7862 23.1799C10.2828 22.6548 10 21.9426 10 21.2V12.8C10 12.0574 10.2828 11.3452 10.7862 10.8201C11.2896 10.295 11.9723 10 12.6842 10ZM12.6842 10.9333C12.2368 10.9333 11.8432 11.092 11.5389 11.372L18.5 16.0667L25.4611 11.372C25.1568 11.092 24.7632 10.9333 24.3158 10.9333H12.6842ZM18.5 17.196L11.0111 12.128C10.9395 12.3333 10.8947 12.5667 10.8947 12.8V21.2C10.8947 21.6951 11.0833 22.1699 11.4189 22.5199C11.7545 22.87 12.2096 23.0667 12.6842 23.0667H24.3158C24.7904 23.0667 25.2455 22.87 25.5811 22.5199C25.9167 22.1699 26.1053 21.6951 26.1053 21.2V12.8C26.1053 12.5667 26.0605 12.3333 25.9889 12.128L18.5 17.196Z" fill="black" fill-opacity="0.5"/>
<rect x="0.5" y="0.5" width="36" height="34" rx="17" stroke="black" stroke-opacity="0.5"/>
</svg>
